# xmcd
#
# Track frame offsets: 
#        150
#        72823
#        96667
#        126915
#        149321
#        200159
#        227074
#        278066
#
# Disc length: 4290 seconds
#
# Revision: 1
# Processed by: cddbd v1.5.2PL0 Copyright (c) Steve Scherf et al.
# Submitted via: ExactAudioCopy v1.0b6
#
DISCID=7d10c008
DTITLE=Michael Rabin - Studio Recordings [CD1.6]
DYEAR=1960
DGENRE=Violino
TTITLE0=PAGANINI: Violinkonzert N°1 Op.6 Re Major - I. Allegro maestos
TTITLE0=o
TTITLE1=PAGANINI: Violinkonzert N°1 Op.6 Re Major - II. Adagio espress
TTITLE1=ivoo
TTITLE2=PAGANINI: Violinkonzert N°1 Op.6 Re Major - III. Rondo: Allegr
TTITLE2=o spirituoso
TTITLE3=GLAZUNOV: Violinkonzert Op.82 La minor - I. Moderato
TTITLE4=GLAZUNOV: Violinkonzert Op.82 La minor - II. Andante sostenuto
TTITLE5=GLAZUNOV: Violinkonzert Op.82 La minor - III. Allegro
TTITLE6=SAINT-SAËNS: Havanaise, Op.83
TTITLE7=SAINT-SAËNS: Introduction and Rondo capriccioso, Op.28
EXTD=
EXTT0=
EXTT1=
EXTT2=
EXTT3=
EXTT4=
EXTT5=
EXTT6=
EXTT7=
PLAYORDER=
